<svg width="512" height="512" viewBox="0 0 512 512" fill="none" xmlns="http://www.w3.org/2000/svg">
<rect width="512" height="512" fill="#00427A"/>
<g clip-path="url(#clip0_106_11)">
<path d="M392.032 308.143V168.159C392.032 153.244 386.107 138.939 375.56 128.393C365.014 117.846 350.709 111.921 335.794 111.921H160.119C152.733 111.92 145.42 113.374 138.596 116.2C131.772 119.026 125.572 123.168 120.349 128.39C115.127 133.613 110.984 139.813 108.158 146.636C105.331 153.46 103.877 160.773 103.877 168.159V343.834C103.877 351.219 105.331 358.532 108.157 365.355C110.983 372.178 115.125 378.378 120.347 383.6C125.569 388.822 131.768 392.965 138.591 395.791C145.414 398.617 152.727 400.072 160.112 400.072H335.787C338.137 400.072 340.485 399.925 342.817 399.633H481.007L392.032 308.143ZM229.465 369.434H179.863C173.855 369.434 167.905 368.251 162.353 365.952C156.802 363.653 151.758 360.283 147.509 356.034C143.26 351.786 139.889 346.742 137.59 341.19C135.29 335.639 134.107 329.689 134.107 323.681V272.488H187.712V300.438C187.712 304.5 189.325 308.395 192.197 311.268C195.068 314.14 198.963 315.754 203.025 315.755H229.465V369.434ZM229.465 195.906H203.025C198.963 195.907 195.068 197.521 192.197 200.394C189.325 203.266 187.712 207.161 187.712 211.223V236.875H134.107V186.909C134.107 180.9 135.29 174.95 137.59 169.399C139.889 163.848 143.26 158.804 147.509 154.555C151.758 150.307 156.802 146.937 162.353 144.637C167.905 142.338 173.855 141.155 179.863 141.156H229.465V195.906ZM362.418 236.875H307.542V211.223C307.543 209.212 307.147 207.22 306.378 205.362C305.608 203.503 304.48 201.815 303.058 200.392C301.636 198.97 299.948 197.842 298.09 197.072C296.232 196.302 294.24 195.906 292.229 195.906H265.436V141.156H316.628C322.637 141.155 328.587 142.338 334.139 144.636C339.691 146.935 344.736 150.305 348.985 154.554C353.234 158.803 356.605 163.847 358.905 169.398C361.205 174.95 362.388 180.9 362.388 186.909L362.418 236.875Z" fill="white"/>
<path d="M307.874 265.27V301.3C307.874 305.028 306.393 308.604 303.756 311.24C301.12 313.876 297.544 315.357 293.816 315.357H265.436V368.697H407.618L307.874 265.27Z" fill="#00A796"/>
</g>
<defs>
<clipPath id="clip0_106_11">
<rect width="450" height="288.158" fill="white" transform="translate(31 111.921)"/>
</clipPath>
</defs>
</svg>
