<svg width="512" height="512" viewBox="0 0 512 512" fill="none" xmlns="http://www.w3.org/2000/svg">
<rect width="512" height="512" fill="#00427A"/>
<g clip-path="url(#clip0_106_12)">
<path d="M346.688 290.762V197.439C346.688 187.496 342.738 177.96 335.707 170.928C328.676 163.897 319.139 159.947 309.196 159.947H192.079C187.156 159.947 182.28 160.916 177.731 162.8C173.182 164.684 169.048 167.445 165.566 170.927C162.084 174.408 159.323 178.542 157.438 183.091C155.554 187.64 154.585 192.515 154.585 197.439V314.556C154.585 319.479 155.554 324.354 157.438 328.903C159.322 333.452 162.083 337.585 165.565 341.067C169.046 344.548 173.179 347.31 177.727 349.194C182.276 351.078 187.151 352.048 192.075 352.048H309.191C310.758 352.048 312.323 351.95 313.878 351.756H406.005L346.688 290.762ZM238.31 331.622H205.242C201.236 331.623 197.27 330.834 193.569 329.301C189.868 327.769 186.505 325.522 183.672 322.689C180.84 319.857 178.593 316.494 177.06 312.794C175.527 309.093 174.738 305.126 174.738 301.121V266.992H210.474V285.625C210.474 288.333 211.55 290.93 213.464 292.845C215.379 294.76 217.976 295.836 220.683 295.837H238.31V331.622ZM238.31 215.937H220.683C217.976 215.938 215.379 217.014 213.464 218.929C211.55 220.844 210.474 223.441 210.474 226.149V243.25H174.738V209.939C174.738 205.933 175.527 201.967 177.06 198.266C178.593 194.565 180.84 191.203 183.672 188.37C186.505 185.538 189.868 183.291 193.569 181.758C197.27 180.226 201.236 179.437 205.242 179.437H238.31V215.937ZM326.945 243.25H290.362V226.149C290.362 224.808 290.098 223.48 289.585 222.241C289.072 221.002 288.32 219.877 287.372 218.928C286.424 217.98 285.299 217.228 284.06 216.715C282.821 216.201 281.493 215.937 280.153 215.937H262.29V179.437H296.419C300.425 179.437 304.392 180.225 308.093 181.758C311.794 183.29 315.157 185.537 317.99 188.369C320.823 191.202 323.07 194.564 324.603 198.265C326.136 201.966 326.925 205.933 326.925 209.939L326.945 243.25Z" fill="white"/>
<path d="M290.583 262.18V286.2C290.583 288.685 289.595 291.069 287.838 292.827C286.08 294.584 283.696 295.572 281.211 295.572H262.29V331.131H357.079L290.583 262.18Z" fill="#00A796"/>
</g>
<defs>
<clipPath id="clip0_106_12">
<rect width="300" height="192.105" fill="white" transform="translate(106 159.947)"/>
</clipPath>
</defs>
</svg>
